<svg xmlns="http://www.w3.org/2000/svg" xmlns:xlink="http://www.w3.org/1999/xlink" version="1.1" x="0px" y="0px" viewBox="0 0 100 100" enable-background="new 0 0 100 100" xml:space="preserve"><path d="M61.245,44.37c0.577-5.387-2.293-11.828-8.749-13.156c-3.858-0.799-7.723,0.029-10.6,2.268  c-1.936,1.505-3.137,3.431-3.215,5.151c-0.038,0.828,0.603,1.529,1.43,1.566c0.86,0.031,1.529-0.604,1.566-1.43  c0.03-0.658,0.688-1.853,2.061-2.921c1.032-0.803,3.892-2.575,8.152-1.697c4.724,0.973,6.809,5.825,6.372,9.898  c-0.369,3.432-2.524,6.104-6.783,8.409c-4.914,2.66-5.344,7.354-4.885,9.464c0.152,0.7,0.771,1.175,1.46,1.175  c0.103,0,0.207-0.011,0.312-0.032c0.806-0.168,1.324-0.962,1.162-1.769c-0.032-0.161-0.741-3.969,3.379-6.199  C58.041,52.318,60.769,48.81,61.245,44.37z M48.061,64.999c-0.828,0-1.5,0.672-1.5,1.5v1.089c0,0.828,0.672,1.5,1.5,1.5  s1.5-0.672,1.5-1.5v-1.089C49.561,65.671,48.889,64.999,48.061,64.999z M33.722,14.678c0.203,0,0.409-0.041,0.606-0.128  c1.947-0.862,3.979-1.567,6.042-2.095c0.803-0.205,1.286-1.022,1.081-1.825c-0.206-0.803-1.022-1.291-1.825-1.081  c-2.223,0.568-4.414,1.328-6.513,2.257c-0.757,0.336-1.1,1.222-0.765,1.979C32.597,14.345,33.146,14.678,33.722,14.678z   M46.548,11.396c0.043,0,0.086-0.002,0.129-0.006c2.101-0.179,4.275-0.186,6.4-0.021c0.814,0.078,1.548-0.554,1.611-1.379  c0.064-0.826-0.553-1.548-1.379-1.611c-2.285-0.18-4.624-0.171-6.887,0.022c-0.825,0.069-1.438,0.796-1.367,1.621  C45.122,10.805,45.777,11.396,46.548,11.396z M13.836,32.246c0.227,0.122,0.471,0.18,0.711,0.18c0.533,0,1.05-0.285,1.321-0.788  c1.012-1.877,2.187-3.681,3.491-5.361c0.508-0.654,0.39-1.597-0.265-2.104c-0.653-0.509-1.598-0.39-2.104,0.265  c-1.406,1.812-2.673,3.755-3.763,5.777C12.834,30.943,13.106,31.853,13.836,32.246z M22.663,21.957c0.365,0,0.73-0.132,1.02-0.399  c1.564-1.449,3.259-2.776,5.033-3.944c0.692-0.455,0.884-1.386,0.429-2.077c-0.455-0.693-1.386-0.883-2.077-0.429  c-1.913,1.258-3.737,2.688-5.424,4.249c-0.607,0.563-0.644,1.512-0.081,2.12C21.858,21.796,22.26,21.957,22.663,21.957z   M71.081,17.481c1.785,1.159,3.487,2.477,5.061,3.915c0.288,0.264,0.65,0.394,1.013,0.394c0.406,0,0.812-0.164,1.106-0.487  c0.56-0.611,0.518-1.561-0.094-2.119c-1.695-1.55-3.529-2.969-5.451-4.218c-0.695-0.451-1.624-0.255-2.075,0.44  S70.387,17.03,71.081,17.481z M86.609,37.267c0.699,2.012,1.234,4.095,1.592,6.194c0.124,0.731,0.759,1.248,1.477,1.248  c0.084,0,0.168-0.007,0.254-0.021c0.816-0.139,1.365-0.913,1.227-1.73c-0.385-2.262-0.962-4.508-1.715-6.675  c-0.272-0.783-1.127-1.198-1.909-0.925C86.751,35.63,86.338,36.484,86.609,37.267z M59.388,12.396  c2.064,0.514,4.103,1.205,6.058,2.056c0.195,0.084,0.398,0.124,0.598,0.124c0.579,0,1.131-0.337,1.377-0.901  c0.33-0.76-0.019-1.644-0.777-1.975c-2.107-0.916-4.305-1.661-6.53-2.216c-0.805-0.198-1.618,0.289-1.818,1.094  C58.095,11.381,58.584,12.195,59.388,12.396z M84.017,31.426c0.273,0.498,0.787,0.78,1.317,0.78c0.243,0,0.49-0.059,0.719-0.184  c0.727-0.398,0.994-1.31,0.597-2.036c-1.1-2.009-2.376-3.944-3.796-5.752c-0.512-0.652-1.453-0.765-2.106-0.253  c-0.651,0.512-0.765,1.455-0.253,2.106C81.812,27.766,82.997,29.562,84.017,31.426z M10.037,44.944  c0.081,0.014,0.163,0.02,0.243,0.02c0.722,0,1.358-0.522,1.479-1.259c0.343-2.104,0.865-4.191,1.551-6.202  c0.268-0.784-0.151-1.637-0.936-1.904c-0.79-0.268-1.637,0.152-1.904,0.936c-0.739,2.17-1.302,4.42-1.672,6.688  C8.664,44.04,9.219,44.811,10.037,44.944z M90.25,48.328c-0.828,0-1.5,0.672-1.5,1.5V50c0,2.138-0.176,4.283-0.521,6.376  c-0.136,0.817,0.417,1.59,1.234,1.725c0.083,0.014,0.166,0.021,0.247,0.021c0.721,0,1.356-0.521,1.478-1.255  c0.373-2.255,0.563-4.564,0.563-6.866v-0.172C91.75,49,91.078,48.328,90.25,48.328z M71.214,82.433  c-1.784,1.17-3.674,2.196-5.619,3.052c-0.758,0.334-1.103,1.219-0.769,1.978c0.247,0.562,0.797,0.896,1.374,0.896  c0.201,0,0.406-0.041,0.604-0.127c2.096-0.922,4.133-2.028,6.055-3.288c0.693-0.455,0.887-1.385,0.433-2.077  C72.837,82.172,71.908,81.98,71.214,82.433z M82.696,73.527c-0.652-0.508-1.596-0.393-2.105,0.262  c-1.308,1.679-2.766,3.264-4.333,4.709c-0.608,0.562-0.646,1.511-0.085,2.12c0.296,0.32,0.698,0.482,1.103,0.482  c0.364,0,0.729-0.132,1.018-0.397c1.687-1.557,3.256-3.263,4.665-5.07C83.467,74.979,83.35,74.037,82.696,73.527z M88.569,61.645  c-0.784-0.272-1.636,0.148-1.905,0.933c-0.69,2.014-1.556,3.984-2.57,5.857c-0.396,0.729-0.125,1.639,0.604,2.033  c0.228,0.123,0.472,0.182,0.714,0.182c0.532,0,1.048-0.284,1.319-0.785c1.095-2.019,2.027-4.144,2.771-6.314  C89.771,62.767,89.354,61.913,88.569,61.645z M59.549,87.564c-2.058,0.521-4.18,0.876-6.308,1.052  c-0.825,0.068-1.439,0.793-1.371,1.619c0.065,0.783,0.721,1.376,1.493,1.376c0.042,0,0.084-0.002,0.126-0.005  c2.292-0.19,4.579-0.571,6.798-1.134c0.803-0.204,1.288-1.02,1.085-1.823C61.169,87.847,60.354,87.362,59.549,87.564z   M11.786,56.459c-0.352-2.092-0.531-4.237-0.536-6.375c-0.002-0.828-0.673-1.497-1.5-1.497H9.747  c-0.829,0.002-1.499,0.675-1.497,1.503c0.005,2.303,0.199,4.612,0.577,6.865c0.123,0.733,0.759,1.252,1.478,1.252  c0.083,0,0.166-0.007,0.25-0.021C11.372,58.049,11.923,57.275,11.786,56.459z M19.456,73.849c-0.511-0.653-1.453-0.769-2.105-0.258  c-0.652,0.51-0.769,1.452-0.258,2.105c1.411,1.807,2.984,3.509,4.675,5.061c0.288,0.265,0.651,0.396,1.015,0.396  c0.405,0,0.81-0.163,1.104-0.485c0.561-0.61,0.521-1.56-0.09-2.119C22.228,77.106,20.767,75.525,19.456,73.849z M46.842,88.623  c-2.128-0.172-4.251-0.521-6.311-1.038c-0.798-0.197-1.618,0.287-1.82,1.09c-0.201,0.804,0.286,1.618,1.09,1.82  c2.219,0.557,4.507,0.934,6.801,1.118c0.041,0.003,0.081,0.005,0.122,0.005c0.773,0,1.43-0.595,1.493-1.38  C48.283,89.413,47.668,88.689,46.842,88.623z M13.362,62.655c-0.271-0.783-1.124-1.2-1.907-0.929  c-0.783,0.271-1.199,1.124-0.929,1.907c0.748,2.166,1.684,4.286,2.782,6.304c0.272,0.499,0.787,0.782,1.318,0.782  c0.243,0,0.488-0.059,0.717-0.183c0.728-0.396,0.996-1.308,0.6-2.035C14.924,66.631,14.056,64.664,13.362,62.655z M34.478,85.517  c-1.949-0.854-3.843-1.877-5.629-3.042c-0.692-0.451-1.623-0.258-2.075,0.437c-0.453,0.693-0.258,1.623,0.437,2.075  c1.923,1.256,3.964,2.358,6.064,3.278c0.195,0.086,0.399,0.126,0.601,0.126c0.578,0,1.129-0.335,1.375-0.898  C35.582,86.733,35.236,85.849,34.478,85.517z"/></svg>